<?xml version="1.0" standalone="no"?>
<!DOCTYPE svg PUBLIC "-//W3C//DTD SVG 20010904//EN"
 "http://www.w3.org/TR/2001/REC-SVG-20010904/DTD/svg10.dtd">
<svg version="1.0" xmlns="http://www.w3.org/2000/svg"
 width="2085.000000pt" height="2085.000000pt" viewBox="0 0 2085.000000 2085.000000"
 preserveAspectRatio="xMidYMid meet">
<metadata>
Created by potrace 1.11, written by Peter Selinger 2001-2013
</metadata>
<g transform="translate(0.000000,2085.000000) scale(0.100000,-0.100000)"
fill="#000000" stroke="none">
<path d="M3810 20839 c-1253 -93 -2390 -751 -3099 -1794 -367 -539 -588 -1134
-678 -1820 -17 -134 -18 -413 -18 -6795 0 -6382 1 -6661 18 -6795 125 -961
518 -1766 1189 -2434 657 -655 1496 -1055 2448 -1168 149 -17 420 -18 6755
-18 6335 0 6606 1 6755 18 795 94 1502 383 2105 861 853 677 1389 1632 1532
2731 17 134 18 419 18 6805 0 6386 -1 6671 -18 6805 -143 1100 -679 2055
-1532 2730 -650 516 -1420 812 -2270 875 -173 12 -13033 11 -13205 -1z m6735
-3044 c136 -29 293 -124 380 -231 59 -73 98 -144 132 -239 l28 -80 0 -3470 0
-3470 -28 -80 c-106 -300 -359 -485 -662 -485 -321 0 -595 217 -675 534 -20
78 -20 116 -20 3501 0 3385 0 3423 20 3501 53 212 194 381 392 474 124 58 290
75 433 45z m-2773 -954 c239 -61 418 -232 500 -477 l23 -69 0 -3470 0 -3470
-23 -70 c-137 -409 -576 -608 -954 -432 -178 83 -306 226 -375 423 l-28 79 0
3470 0 3470 28 80 c70 196 192 335 373 422 134 64 311 81 456 44z m5580 -950
c237 -61 419 -238 505 -491 17 -53 18 -178 21 -3490 2 -3030 1 -3444 -13
-3510 -18 -91 -87 -235 -148 -309 -204 -245 -551 -321 -832 -182 -152 76 -252
176 -325 326 -76 156 -70 -176 -70 3641 0 3360 0 3432 19 3506 63 247 259 444
503 508 99 26 241 26 340 1z m-8358 -1426 c192 -50 363 -194 451 -380 70 -149
65 91 65 -2886 0 -2683 3 -2936 36 -3188 154 -1200 793 -2239 1774 -2886 184
-122 350 -214 528 -295 1014 -459 2132 -474 3137 -42 77 33 1477 718 3110
1522 1634 804 3008 1476 3054 1492 322 114 688 -41 841 -357 52 -106 70 -187
70 -316 0 -207 -65 -365 -209 -509 -75 -75 -102 -94 -206 -147 -408 -206
-6042 -2970 -6140 -3011 -471 -199 -981 -331 -1505 -387 -204 -22 -646 -30
-860 -16 -1307 88 -2497 630 -3424 1557 -814 815 -1367 1920 -1535 3069 -59
407 -56 200 -56 3350 l0 2880 27 80 c74 217 244 390 453 460 111 37 270 41
389 10z"/>
</g>
</svg>
