<svg xmlns="http://www.w3.org/2000/svg" width="110" height="22" viewBox="0 0 110 22">
    <g fill="none" fill-rule="evenodd">
        <path fill="#FFF" d="M4.06 15.875c0 1.413.525 2.118 1.574 2.118 1.123-.018 2.053-.614 2.79-1.788.257-.402.469-.897.635-1.485 0-2.053.184-3.812.552-5.28-1.491.294-2.79 1.009-3.894 2.145-1.105 1.137-1.657 2.568-1.657 4.29m13.035-1.65c.33 0 .497.423.497 1.265 0 .458-.194 1.013-.58 1.664a7.409 7.409 0 0 1-1.505 1.788 8.523 8.523 0 0 1-2.058 1.334c-.754.348-1.49.521-2.209.521-.976 0-1.629-.852-1.96-2.557a6.016 6.016 0 0 1-1.878 1.94c-.774.504-1.81.755-3.107.755-1.298 0-2.343-.402-3.134-1.21-.792-.806-1.179-1.788-1.16-2.943 0-3.115 1.04-5.572 3.12-7.37.884-.75 1.708-1.246 2.472-1.484a8.068 8.068 0 0 1 2.416-.358c.847 0 1.537.147 2.071.44.258-.531.553-.797.884-.797.644 0 1.256.28 1.836.839.58.56.87 1.085.87 1.58-.258.606-.635 1.33-1.132 2.173-.147.843-.221 2.026-.221 3.548 0 1.522.193 2.282.58 2.282.479 0 1.639-.952 3.48-2.86.33-.366.57-.55.718-.55"/>
        <path fill="#FFF" d="M29.272 12.355c0-.605-.35-.907-1.049-.907-.479 0-1.012.463-1.602 1.389a9.815 9.815 0 0 0-1.27 2.983v.055c0 .624.096 1.266.29 1.925.193.66.29 1.119.29 1.375 0 .624-.783 1.238-2.347 1.843-.24.091-.452.138-.635.138-.46 0-.779-.24-.954-.716-.174-.476-.262-1.122-.262-1.938 0-.816.024-1.586.07-2.31.045-.724.092-1.393.138-2.008.046-.614.092-1.155.137-1.622.046-.468.07-.848.07-1.142 0-.623-.286-.935-.856-.935-.571 0-1.234.665-1.989 1.994-.755 1.33-1.132 2.383-1.132 3.162 0 .78.097 1.5.29 2.16.193.66.29 1.118.29 1.374 0 .624-.783 1.238-2.347 1.843-.24.091-.452.138-.635.138-.46 0-.778-.24-.953-.716-.175-.476-.262-1.21-.262-2.2 0-2.603.1-4.482.303-5.637.276-1.706.902-3.318 1.878-4.84.332-.513.69-.77 1.077-.77.608 0 1.17.495 1.685 1.485.147.257.257.495.331.715.884-1.1 1.923-1.65 3.12-1.65.792 0 1.501.26 2.127.784.625.522.939 1.178.939 1.965v.303c1.122-1.393 2.494-2.09 4.114-2.09.995 0 1.75.257 2.264.77.516.513.774 1.146.774 1.898s-.055 1.43-.166 2.035c-.11.604-.234 1.173-.372 1.705a195.54 195.54 0 0 1-.373 1.416c-.11.413-.166.734-.166.962 0 .23.073.344.221.344.276 0 .616-.174 1.022-.522.404-.348.81-.728 1.215-1.141l1.118-1.142c.34-.348.576-.523.704-.523.258 0 .387.313.387.936 0 1.284-.649 2.53-1.947 3.74-1.298 1.21-2.683 1.814-4.156 1.814-1.326 0-1.988-1.2-1.988-3.602 0-.605.1-1.44.304-2.503.202-1.062.303-1.842.303-2.337"/>
        <path fill="#FFF" d="M44.212 15.187c.313-.66.47-1.301.47-1.924s-.203-.935-.608-.935c-.166 0-.304.12-.414.357-.11.239-.166.468-.166.688 0 .733.24 1.338.718 1.814m.249 3.19c-1.455 1.706-3.2 2.558-5.233 2.558-2.035 0-3.559-.518-4.57-1.554-1.013-1.035-1.51-2.324-1.492-3.863-.018-2.182.672-4.06 2.071-5.638 1.4-1.576 3.232-2.365 5.496-2.365 1.03 0 1.859.129 2.485.385 1.086.44 1.63.852 1.63 1.237 0 .294-.76.446-2.279.455-1.519.009-2.79.531-3.811 1.567s-1.533 2.342-1.533 3.92c0 .824.244 1.516.732 2.075.488.56 1.179.839 2.071.839.893 0 1.634-.183 2.223-.55-1.307-.88-1.96-2.154-1.96-3.823-.02-.88.299-1.681.953-2.406.653-.724 1.49-1.09 2.512-1.1 1.022-.009 1.754.27 2.196.839.442.568.663 1.297.663 2.186 0 .89-.212 1.829-.636 2.82h.166a3.08 3.08 0 0 0 2.099-.854c.22-.22.41-.413.566-.577.156-.165.318-.248.483-.248.258 0 .387.303.387.907 0 1.12-.331 1.958-.994 2.517-.663.56-1.395.838-2.196.838-.8 0-1.477-.054-2.03-.164"/>
        <path fill="#87D5F6" d="M109.776 18.184a2.758 2.758 0 0 1-2.764 2.751 2.759 2.759 0 0 1-2.763-2.752 2.757 2.757 0 0 1 2.764-2.751 2.758 2.758 0 0 1 2.763 2.752"/>
        <path d="M60.466.507h18.53v21.107h-18.53z"/>
        <path fill="#87D5F6" d="M66.513 4.811c.24 0 .36.312.36.935s-.038 1.21-.11 1.76a25.474 25.474 0 0 1-.636 2.97c-.663 2.493-.994 3.95-.994 4.372v4.043c0 .99-.378 1.669-1.132 2.036-.35.164-.686.32-1.009.467-.322.146-.686.22-1.09.22-.773 0-1.16-.884-1.16-2.654s.415-4.002 1.243-6.696c.828-2.695 1.693-4.749 2.596-6.16.183-.275.45-.559.8-.853.35-.293.728-.44 1.132-.44m12.013 9.9c.312 0 .47.422.47 1.265 0 .459-.193 1.014-.58 1.664a7.407 7.407 0 0 1-1.506 1.787 8.45 8.45 0 0 1-2.056 1.334c-.756.349-1.474.523-2.154.523-.682 0-1.215-.128-1.602-.385a2.664 2.664 0 0 1-.912-1.045c-.312-.623-.57-1.81-.773-3.562-.203-1.75-.405-2.974-.608-3.67a2.85 2.85 0 0 1-1.256-.565c-.359-.284-.539-.632-.539-1.045 0-.412.19-.71.567-.894.377-.182.81-.275 1.298-.275.487 0 .925.12 1.311.358a5.187 5.187 0 0 0 1.257-1.499c.322-.578.483-1.356.483-2.337 0-.98-.331-1.765-.994-2.351-.663-.587-1.634-.88-2.914-.88-1.28 0-2.26.1-2.94.302-.682.202-1.267.422-1.754.66-.488.239-.92.459-1.298.66-.377.202-.732.303-1.063.303-.331 0-.497-.106-.497-.317 0-.21.175-.554.524-1.03.35-.477.866-.954 1.547-1.431C64.25 1.09 66.182.498 68.337.507c2.153.01 3.93.418 5.33 1.224 1.637.954 2.457 2.383 2.457 4.29.018 1.577-.396 2.888-1.243 3.933a7.14 7.14 0 0 1-3.148 2.255c.276.604.501 1.255.677 1.952.174.697.345 1.339.51 1.925.166.587.354 1.073.566 1.458.211.385.47.577.773.577.304 0 .673-.178 1.105-.536.433-.358.86-.747 1.284-1.168.423-.423.806-.813 1.146-1.17.34-.358.584-.536.732-.536"/>
        <path d="M74.3.521h28.473v21.093H74.3z"/>
        <path fill="#87D5F6" d="M102.303 14.711c.313 0 .47.422.47 1.265 0 .459-.193 1.014-.58 1.664a7.394 7.394 0 0 1-1.505 1.787 8.493 8.493 0 0 1-2.057 1.334 5.625 5.625 0 0 1-2.39.523c-.837 0-1.49-.27-1.96-.812-.47-.54-.704-1.145-.704-1.815 0-.669.11-1.425.331-2.268.221-.844.46-1.724.718-2.64.7-2.438 1.058-4.153 1.077-5.143 0-.421-.055-.747-.166-.976-.11-.23-.322-.344-.634-.344-.553 0-1.142.33-1.768.99-.626.66-1.215 1.504-1.767 2.53-1.271 2.347-1.942 4.639-2.017 6.875l.111.77c.037.257.055.532.055.825 0 .587-.29 1.123-.87 1.61-.58.484-1.228.728-1.946.728-.424 0-.737-.207-.94-.62-.203-.411-.304-.92-.304-1.525 0-.605.138-1.43.415-2.475.277-1.046.58-2.155.911-3.328.884-3.098 1.335-5.408 1.353-6.93 0-.77-.096-1.375-.29-1.815-.192-.44-.566-.66-1.118-.66-.994 0-1.98.706-2.955 2.118-.976 1.412-1.85 3.602-2.624 6.572-.202.77-.359 1.44-.47 2.007l-.027.523c.35 1.687.525 2.787.525 3.3 0 1.064-.378 1.779-1.132 2.146-.35.164-.687.32-1.009.467-.321.146-.667.22-1.035.22-.92 0-1.381-.876-1.381-2.627 0-1.75.488-5.174 1.464-10.271.35-1.833.525-2.86.525-3.08 0-1.485-.378-2.227-1.132-2.227-.258 0-.493.073-.705.22-.211.146-.424.302-.635.467-.212.165-.427.321-.649.468-.22.146-.474.22-.76.22-.285 0-.427-.248-.427-.743 0-1.008.47-1.833 1.409-2.475.901-.66 1.997-.99 3.285-.99 1.657 0 2.633.77 2.928 2.31.073.459.128.944.165 1.457C83.45 1.796 85.171.521 87.253.521c2.264 0 3.562 1.082 3.894 3.245.11.624.156 1.293.137 2.008v.22c1.197-1.65 2.614-2.475 4.253-2.475 2.32 0 3.48 1.393 3.48 4.18 0 1.21-.189 2.626-.566 4.248a291.936 291.936 0 0 1-.828 3.493c-.176.705-.263 1.251-.263 1.636 0 .697.244 1.045.732 1.045.487 0 1.652-.953 3.493-2.86.332-.366.571-.55.718-.55M62.973 11.062c.463 0 .697.442.697 1.325 0 .884-.2 1.833-.601 2.847-.4 1.014-1.007 1.992-1.821 2.932-.815.942-1.855 1.747-3.12 2.412-1.268.667-2.76 1-4.478 1-1.72 0-3.224-.57-4.515-1.716-1.293-1.145-1.938-2.797-1.938-4.955 0-2.157.302-4.113.91-5.866.607-1.752 1.408-3.266 2.403-4.54.994-1.276 2.126-2.268 3.392-2.978C55.168.813 56.369.458 57.506.458c1.99 0 2.985.885 2.985 2.651 0 1.015-.187 1.825-.561 2.434-.376.608-.756.912-1.144.912-.518 0-.969-.202-1.356-.609-.389-.404-.815-.615-1.28-.629-.466-.014-1.729-.049-2.803 1.67-.75 1.201-.635 1.08-.92 1.89-.569 1.623-.902 2.87-.902 5.042.026 1.043.963 2.638 1.79 3.16.568.347 1.246.639 2.016.542 1.66-.208 2.592-.992 3.271-1.716.626-.669 1.178-1.303 1.773-1.985.594-.68 1.117-1.309 1.57-1.89.452-.579.794-.868 1.028-.868"/>
    </g>
</svg>
