<?xml version="1.0" encoding="UTF-8" standalone="no"?>
<!DOCTYPE svg PUBLIC "-//W3C//DTD SVG 1.1//EN" "http://www.w3.org/Graphics/SVG/1.1/DTD/svg11.dtd">
<svg width="100%" height="100%" viewBox="0 0 170 50" version="1.1" xmlns="http://www.w3.org/2000/svg" xmlns:xlink="http://www.w3.org/1999/xlink" xml:space="preserve" xmlns:serif="http://www.serif.com/" style="fill-rule:evenodd;clip-rule:evenodd;stroke-linejoin:round;stroke-miterlimit:2;">
    <path d="M26.5,34.9C27.1,34.9 27.7,35.1 28.1,35.5C28.5,35.9 28.7,36.4 28.7,37.1C28.7,37.7 28.5,38.3 28,38.7C25.8,40.6 23.2,41.6 20.3,41.6C17,41.6 14.2,40.4 11.9,38.1C9.6,35.8 8.4,33 8.4,29.7C8.4,26.4 9.6,23.6 11.9,21.3C14.2,19 17,17.8 20.3,17.8C23.3,17.8 25.9,18.8 28,20.7C28.5,21.2 28.8,21.7 28.8,22.4C28.8,23 28.6,23.6 28.2,24C27.8,24.4 27.3,24.6 26.6,24.6C26.1,24.6 25.6,24.4 25.2,24.1C24.5,23.5 23.7,23 22.9,22.7C22.1,22.4 21.2,22.2 20.3,22.2C19.3,22.2 18.3,22.4 17.4,22.8C16.5,23.2 15.7,23.7 15,24.4C14.3,25.1 13.8,25.9 13.4,26.8C13,27.7 12.8,28.7 12.8,29.7C12.8,30.7 13,31.7 13.4,32.6C13.8,33.5 14.3,34.3 15,35C15.7,35.7 16.5,36.2 17.4,36.6C18.3,37 19.3,37.2 20.3,37.2C21.2,37.2 22.1,37 22.9,36.7C23.7,36.4 24.4,35.9 25.1,35.3C25.5,35.1 26,35 26.5,34.9Z" style="fill-rule:nonzero;"/>
    <path d="M39.4,39.4C39.4,40 39.2,40.5 38.8,41C38.4,41.4 37.8,41.6 37.2,41.6C36.6,41.6 36.1,41.4 35.6,41C35.2,40.6 35,40 35,39.4L35,10C35,9.4 35.2,8.9 35.6,8.4C36,8 36.6,7.8 37.2,7.8C37.8,7.8 38.3,8 38.8,8.4C39.2,8.8 39.5,9.4 39.5,10L39.5,20.2C41.4,18.7 43.6,18 46.1,18C47.6,18 49,18.3 50.3,18.9C51.6,19.5 52.8,20.3 53.8,21.3C54.8,22.3 55.6,23.5 56.2,24.8C56.8,26.2 57.1,27.6 57.1,29.1L57.1,39.5C57.1,40.1 56.9,40.6 56.4,41.1C56,41.5 55.4,41.7 54.8,41.7C54.2,41.7 53.7,41.5 53.2,41.1C52.8,40.7 52.6,40.1 52.6,39.5L52.6,29C52.6,28.1 52.4,27.2 52.1,26.4C51.7,25.6 51.3,24.9 50.7,24.3C50.1,23.7 49.4,23.2 48.6,22.9C47.8,22.5 46.9,22.4 46,22.4C45.1,22.4 44.2,22.6 43.4,22.9C42.6,23.2 41.9,23.7 41.3,24.3C40.7,24.9 40.2,25.6 39.9,26.4C39.6,27.2 39.4,28.1 39.4,29L39.4,39.4Z" style="fill-rule:nonzero;"/>
    <path d="M81.8,39.5L81.8,39C80.7,39.8 79.6,40.5 78.3,41C77.1,41.5 75.7,41.7 74.3,41.7C71,41.7 68.2,40.5 65.9,38.2C63.6,35.9 62.4,33.1 62.4,29.8C62.4,26.5 63.6,23.7 65.9,21.4C68.2,19.1 71,17.9 74.3,17.9C77.6,17.9 80.4,19.1 82.7,21.4C85,23.7 86.2,26.5 86.2,29.8L86.2,39.5C86.2,40.1 86,40.6 85.6,41.1C85.2,41.5 84.6,41.7 84,41.7C83.4,41.7 82.9,41.5 82.4,41.1C82,40.6 81.8,40.1 81.8,39.5ZM74.3,22.3C73.3,22.3 72.3,22.5 71.4,22.9C70.5,23.3 69.7,23.8 69,24.5C68.3,25.2 67.8,26 67.4,26.9C67,27.8 66.8,28.8 66.8,29.8C66.8,30.8 67,31.8 67.4,32.7C67.8,33.6 68.3,34.4 69,35.1C69.7,35.8 70.4,36.3 71.4,36.7C72.3,37.1 73.3,37.3 74.3,37.3C75.3,37.3 76.3,37.1 77.2,36.7C78.1,36.3 78.9,35.8 79.6,35.1C80.3,34.4 80.8,33.6 81.2,32.7C81.6,31.8 81.8,30.8 81.8,29.8C81.8,28.8 81.6,27.8 81.2,26.9C80.8,26 80.3,25.2 79.6,24.5C78.9,23.8 78.1,23.3 77.2,22.9C76.3,22.5 75.3,22.3 74.3,22.3Z" style="fill-rule:nonzero;"/>
    <path d="M92.3,17.9L93.3,17.9L93.3,9.9C93.3,9.3 93.5,8.8 93.9,8.3C94.3,7.9 94.9,7.7 95.5,7.7C96.1,7.7 96.6,7.9 97.1,8.3C97.5,8.7 97.7,9.3 97.7,9.9L97.7,17.9L100.4,17.9C101,17.9 101.5,18.1 101.9,18.5C102.3,18.9 102.5,19.5 102.5,20.1C102.5,20.7 102.3,21.2 101.9,21.7C101.5,22.1 101,22.3 100.4,22.3L97.7,22.3L97.7,33C97.7,35.8 99.1,37.2 101.9,37.2C102.5,37.2 103,37.4 103.4,37.8C103.8,38.2 104,38.8 104,39.4C104,40 103.8,40.5 103.4,41C103,41.5 102.5,41.6 101.9,41.6C96.1,41.6 93.2,38.7 93.2,32.9L93.2,22.3L92.2,22.3C91.6,22.3 91.1,22.1 90.7,21.7C90.3,21.3 90.1,20.7 90.1,20.1C90.1,19.5 90.3,19 90.7,18.5C91.2,18.1 91.7,17.9 92.3,17.9Z" style="fill-rule:nonzero;"/>
    <path d="M121.1,17.9C122.1,17.9 122.9,18.4 123.2,19.5L127.5,32.4L132,19.1C132.1,18.7 132.3,18.4 132.7,18.2C133,18 133.5,17.9 134,17.9C134.3,17.9 134.6,18 134.9,18.1C135.2,18.2 135.4,18.4 135.6,18.6C135.8,18.8 136,19 136.1,19.3C136.2,19.6 136.3,19.9 136.3,20.1C136.3,20.4 136.2,20.7 136.1,20.9L129.7,40.2C129.6,40.6 129.3,40.9 129,41.2C128.7,41.5 128.2,41.6 127.6,41.6C127.1,41.6 126.7,41.5 126.3,41.2C125.9,40.9 125.7,40.6 125.6,40.2L121.2,27.1L116.8,40.2C116.7,40.6 116.4,40.9 116,41.2C115.6,41.5 115.2,41.6 114.7,41.6C114.2,41.6 113.8,41.5 113.4,41.2C113,40.9 112.8,40.6 112.6,40.2L106.1,21C106,20.7 106,20.4 106,20.2C106,19.9 106.1,19.6 106.2,19.4C106.3,19.1 106.5,18.9 106.7,18.7C106.9,18.5 107.1,18.3 107.4,18.2C107.7,18.1 108,18 108.3,18C108.8,18 109.2,18.1 109.6,18.4C109.9,18.6 110.2,18.9 110.3,19.3L114.8,32.6L119.1,19.7C119.3,18.5 120,17.9 121.1,17.9Z" style="fill-rule:nonzero;"/>
    <path d="M157.2,39.5L157.2,39C156.1,39.8 155,40.5 153.7,41C152.5,41.5 151.1,41.7 149.7,41.7C146.4,41.7 143.6,40.5 141.3,38.2C139,35.9 137.8,33.1 137.8,29.8C137.8,26.5 139,23.7 141.3,21.4C143.6,19.1 146.4,17.9 149.7,17.9C153,17.9 155.8,19.1 158.1,21.4C160.4,23.7 161.6,26.5 161.6,29.8L161.6,39.5C161.6,40.1 161.4,40.6 161,41.1C160.6,41.5 160,41.7 159.4,41.7C158.8,41.7 158.3,41.5 157.8,41.1C157.4,40.6 157.2,40.1 157.2,39.5ZM149.8,22.3C148.8,22.3 147.8,22.5 146.9,22.9C146,23.3 145.2,23.8 144.5,24.5C143.8,25.2 143.3,26 142.9,26.9C142.5,27.8 142.3,28.8 142.3,29.8C142.3,30.8 142.5,31.8 142.9,32.7C143.3,33.6 143.8,34.4 144.5,35.1C145.2,35.8 145.9,36.3 146.9,36.7C147.8,37.1 148.8,37.3 149.8,37.3C150.8,37.3 151.8,37.1 152.7,36.7C153.6,36.3 154.4,35.8 155.1,35.1C155.8,34.4 156.3,33.6 156.7,32.7C157.1,31.8 157.3,30.8 157.3,29.8C157.3,28.8 157.1,27.8 156.7,26.9C156.3,26 155.8,25.2 155.1,24.5C154.4,23.8 153.6,23.3 152.7,22.9C151.8,22.5 150.8,22.3 149.8,22.3Z" style="fill-rule:nonzero;"/>
    <g>
        <path d="M163.7,0L6.3,0C2.8,0 0,2.8 0,6.3L0,43.4C0,46.9 2.8,49.7 6.3,49.7L163.6,49.7C167.1,49.7 169.9,46.9 169.9,43.4L169.9,6.3C170,2.8 167.1,0 163.7,0ZM166.9,43.4C166.9,45.2 165.4,46.7 163.6,46.7L6.4,46.7C4.6,46.7 3.1,45.2 3.1,43.4L3.1,6.1C3.1,4.3 4.6,2.8 6.4,2.8L163.6,2.8C165.4,2.8 166.9,4.3 166.9,6.1L166.9,43.4Z" style="fill-rule:nonzero;"/>
    </g>
</svg>
