<svg xmlns="http://www.w3.org/2000/svg" width="95" height="76" viewBox="0 0 95 76">
    <path fill="#FFF" fill-rule="nonzero" d="M50.598 59.559c-3.642 3.383-7.252 6.71-10.83 10.064-1.25 1.175-2.656 1.824-4.45 1.734-1.226-.062-1.911-.575-2.287-1.684-2.74-8.112-5.521-16.204-8.247-24.324-.265-.788-.656-1.17-1.492-1.417-6.456-1.88-12.9-3.805-19.333-5.755-.99-.3-1.988-.694-2.844-1.249-1.322-.854-1.515-2.247-.33-3.25 1.095-.923 2.403-1.729 3.76-2.242 7.892-2.983 15.826-5.87 23.747-8.782C48.394 15.252 68.496 7.855 88.6.453c3.823-1.41 6.761.575 6.364 4.518-.254 2.521-.94 5.003-1.492 7.492a51910.649 51910.649 0 0 1-13.123 58.972c-1.042 4.667-4.478 5.885-8.505 3.053-6.744-4.74-13.482-9.497-20.222-14.246-.322-.222-.656-.437-1.024-.683zm-15.094 5.885c.074-.02.149-.039.223-.057.042-.18.102-.357.118-.536.427-4.365.878-8.728 1.249-13.102.083-.974.435-1.665 1.207-2.32 6.126-5.195 12.214-10.422 18.314-15.638 6.753-5.775 13.508-11.545 20.236-17.344.417-.357.59-.966.876-1.46-.633-.065-1.313-.307-1.888-.166-.785.193-1.529.625-2.228 1.043-14.904 8.902-29.795 17.82-44.71 26.703-.842.503-1 .929-.678 1.807 1.1 2.994 2.1 6.016 3.137 9.033 1.381 4.014 2.762 8.026 4.144 12.037z"/>
</svg>
