<svg xmlns="http://www.w3.org/2000/svg" width="94" height="94" viewBox="0 0 94 94">
    <path fill="#FFF" fill-rule="nonzero" d="M46.983 0h-.028C21.062 0 0 21.069 0 46.967a46.635 46.635 0 0 0 8.943 27.528L3.09 91.945l18.055-5.769c7.424 4.914 16.286 7.76 25.838 7.76 25.89 0 46.953-21.07 46.953-46.967C93.936 21.069 72.874 0 46.983 0zM74.31 66.321c-1.134 3.203-5.631 5.855-9.222 6.629-2.452.521-5.66.938-16.45-3.536-13.802-5.716-22.688-19.743-23.38-20.654-.66-.91-5.575-7.427-5.575-14.165 0-6.738 3.422-10.021 4.803-11.43 1.133-1.16 3.01-1.684 4.804-1.684.579 0 1.105.026 1.572.052 1.38.057 2.071.14 2.983 2.322 1.134 2.733 3.89 9.469 4.22 10.16.335.692.664 1.628.197 2.54-.448.94-.831 1.355-1.522 2.155-.69.802-1.352 1.409-2.042 2.264-.636.743-1.348 1.547-.55 2.926.8 1.352 3.562 5.852 7.619 9.469 5.245 4.667 9.495 6.157 11.012 6.793 1.133.469 2.485.36 3.314-.524 1.05-1.133 2.345-3.01 3.674-4.86.938-1.326 2.123-1.492 3.366-1.023 1.27.44 7.977 3.755 9.357 4.445 1.379.69 2.291 1.021 2.624 1.602.329.584.329 3.317-.804 6.52z"/>
</svg>
