<?xml version="1.0" encoding="utf-8"?>
<!-- Generator: Adobe Illustrator 22.1.0, SVG Export Plug-In . SVG Version: 6.00 Build 0)  -->
<svg version="1.1" id="Layer_1" xmlns="http://www.w3.org/2000/svg" xmlns:xlink="http://www.w3.org/1999/xlink" x="0px" y="0px"
	 viewBox="0 0 192 192" style="enable-background:new 0 0 192 192;" xml:space="preserve">
<style type="text/css">
	.st0{fill:#FFFFFF;}
</style>
<g>
	<path class="st0" d="M125.4,0c-53.8,0-5.1,0-58.9,0S0,12.8,0,66.6c0,30,0,5.1,0,58.9S12.8,192,66.6,192s5.1,0,58.9,0
		s66.6-12.8,66.6-66.6s0-5.1,0-58.9S179.2,0,125.4,0z M155,137h-14c-5.3,0-6.9-4.3-16.4-13.8c-8.3-8-11.9-9-13.9-9
		c-2.8,0-3.7,0.8-3.7,4.8v12.6c0,3.4-1.1,5.4-10,5.4c-14.8,0-31.1-9-42.7-25.6C37,87.1,32.2,68.7,32.2,65c0-2.1,0.8-4,4.8-4h14
		c3.6,0,4.9,1.6,6.3,5.4c6.8,20,18.4,37.4,23.1,37.4c1.8,0,2.6-0.8,2.6-5.3V77.9c-0.5-9.5-5.6-10.3-5.6-13.6c0-1.6,1.3-3.2,3.6-3.2
		h22c3,0,4,1.6,4,5.2v27.7c0,3,1.3,4,2.2,4c1.8,0,3.3-1,6.5-4.3C125.8,82.3,132.9,65,132.9,65c0.9-2.1,2.5-4,6.1-4h14
		c4.2,0,5.1,2.2,4.2,5.2c-1.8,8.1-18.8,32.2-18.8,32.2c-1.5,2.4-2.1,3.6,0,6.2c1.5,2.1,6.4,6.2,9.6,10.1c6,6.8,10.5,12.5,11.8,16.4
		C161,135,159,137,155,137z"/>
</g>
</svg>
