<?xml version="1.0" encoding="UTF-8" standalone="no"?>
<!DOCTYPE svg PUBLIC "-//W3C//DTD SVG 1.1//EN" "http://www.w3.org/Graphics/SVG/1.1/DTD/svg11.dtd">
<svg version="1.1" xmlns="http://www.w3.org/2000/svg" xmlns:xlink="http://www.w3.org/1999/xlink" preserveAspectRatio="xMidYMid meet" viewBox="0 0 640 640" width="640" height="640"><defs><path d="M546.85 93.42C486.69 33.21 406.67 0.03 321.43 0C145.79 0 2.84 142.9 2.77 318.54C2.74 374.69 17.42 429.49 45.3 477.8C42.29 488.81 27.22 543.83 0.09 642.88C101.45 616.3 157.76 601.54 169.02 598.58C215.56 623.96 267.97 637.33 321.3 637.36C321.32 637.36 321.42 637.36 321.43 637.36C497.06 637.36 640.02 494.44 640.09 318.8C640.13 233.68 607.01 153.64 546.85 93.42M321.43 583.55C321.37 583.55 321.33 583.55 321.32 583.55C273.8 583.53 227.18 570.77 186.52 546.65C185.88 546.26 182.65 544.35 176.85 540.91L76.6 567.2L103.36 469.49C99.58 463.48 97.48 460.14 97.06 459.47C70.55 417.32 56.55 368.59 56.57 318.56C56.63 172.57 175.44 53.8 321.54 53.8C392.28 53.83 458.78 81.41 508.79 131.45C558.79 181.5 586.32 248.03 586.29 318.78C586.23 464.77 467.42 583.55 321.43 583.55M466.71 385.25C458.75 381.27 419.61 362.01 412.31 359.35C405.01 356.7 399.7 355.37 394.39 363.34C389.08 371.31 373.83 389.24 369.18 394.55C364.54 399.86 359.89 400.52 351.93 396.54C343.97 392.56 318.31 384.15 287.9 357.03C264.23 335.93 248.25 309.86 243.6 301.89C238.96 293.92 243.11 289.61 247.1 285.65C250.68 282.08 255.06 276.35 259.04 271.7C263.02 267.05 264.35 263.73 267 258.42C269.65 253.11 268.33 248.46 266.34 244.48C264.35 240.49 248.42 201.31 241.79 185.38C235.32 169.85 228.76 171.95 223.87 171.71C219.23 171.48 213.92 171.43 208.61 171.43C203.3 171.43 194.68 173.42 187.38 181.39C180.08 189.36 159.51 208.62 159.51 247.8C159.51 286.97 188.04 324.82 192.02 330.14C196.01 335.45 248.17 415.85 328.04 450.33C347.04 458.53 361.87 463.42 373.43 467.1C392.51 473.15 409.87 472.3 423.59 470.25C438.88 467.96 470.69 450.99 477.33 432.4C483.96 413.81 483.96 397.87 481.97 394.55C479.98 391.23 474.68 389.24 466.71 385.25" id="a1FT7Gl5cR"></path></defs><g><g><g><use xlink:href="#a1FT7Gl5cR" opacity="1" fill="#ffffff" fill-opacity="1"></use><g><use xlink:href="#a1FT7Gl5cR" opacity="1" fill-opacity="0" stroke="#000000" stroke-width="1" stroke-opacity="0"></use></g></g></g></g></svg>